<?xml version="1.0" encoding="utf-8"?>
<!-- Generator: Adobe Illustrator 25.0.0, SVG Export Plug-In . SVG Version: 6.00 Build 0)  -->
<svg version="1.1" id="Layer_1" xmlns="http://www.w3.org/2000/svg" xmlns:xlink="http://www.w3.org/1999/xlink" x="0px" y="0px"
	 viewBox="0 0 615.59 231.83" style="enable-background:new 0 0 615.59 231.83;" xml:space="preserve">
<style type="text/css">
	.st0{fill:#EE2134;}
	.st1{fill:#26225C;}
</style>
<g>
	<g>
		<path class="st0" d="M62.86,134.5v-4.11c-6.99,0-12.65-5.66-12.65-12.65h0v0h0.03c6.97,0.02,12.61,5.67,12.61,12.65h4.09h0.02
			h4.09c0-6.97,5.64-12.63,12.61-12.65h0.03v0h0c0,6.99-5.66,12.65-12.65,12.65v4.11c9.21,0,16.68-7.43,16.76-16.62h0v-0.14v-0.09
			v-4.02h-4.11v0c-0.02,0-0.04,0-0.06,0h-0.03v0c-9.06,0.05-16.42,7.3-16.66,16.32c-0.23-9.02-7.59-16.27-16.66-16.32v0h-0.03
			c-0.02,0-0.04,0-0.06,0v0h-4.11v4.02v0.09v0.14h0C46.18,127.06,53.66,134.5,62.86,134.5z"/>
		
			<rect x="43.02" y="85.5" transform="matrix(0.7071 -0.7071 0.7071 0.7071 -49.0616 58.367)" class="st0" width="5.81" height="5.81"/>
		
			<rect x="34.72" y="194.42" transform="matrix(0.7071 -0.7071 0.7071 0.7071 -128.5114 84.4019)" class="st0" width="5.81" height="5.81"/>
		
			<rect x="34.74" y="169.28" transform="matrix(0.7071 -0.7071 0.7071 0.7071 -110.7205 77.0435)" class="st0" width="5.81" height="5.81"/>
		
			<rect x="23.79" y="72.74" transform="matrix(0.7071 -0.7071 0.7071 0.7071 -45.6693 41.0301)" class="st0" width="5.81" height="5.81"/>
		
			<rect x="38.95" y="44.35" transform="matrix(0.7071 -0.7071 0.7071 0.7071 -21.1572 43.4375)" class="st0" width="5.81" height="5.81"/>
		<path class="st0" d="M83.59,155.37h4.23v-4.11h0v0h0c0,0,0-0.01,0-0.01v-0.07h0c-0.05-9.21-7.53-16.68-16.76-16.68v4.11
			c6.96,0,12.6,5.62,12.65,12.57h0v0.08c-6.99,0-12.65-5.66-12.65-12.65h-4.08h-0.03h-4.08c0,6.99-5.66,12.65-12.65,12.65v-0.08h0
			c0.04-6.95,5.69-12.57,12.65-12.57v-4.11c-9.22,0-16.71,7.46-16.76,16.68h0v0.07c0,0,0,0.01,0,0.01h0v0h0v4.11h4.23v0
			c9.01-0.06,16.33-7.24,16.63-16.19C67.26,148.13,74.58,155.3,83.59,155.37L83.59,155.37z"/>
		
			<rect x="85.1" y="85.5" transform="matrix(0.7071 -0.7071 0.7071 0.7071 -36.7366 88.1141)" class="st0" width="5.81" height="5.81"/>
		
			<rect x="93.4" y="194.42" transform="matrix(0.7071 -0.7071 0.7071 0.7071 -111.3226 125.8931)" class="st0" width="5.81" height="5.81"/>
		
			<rect x="93.37" y="169.28" transform="matrix(0.7071 -0.7071 0.7071 0.7071 -93.5513 118.5012)" class="st0" width="5.81" height="5.81"/>
		
			<rect x="97.55" y="131.59" transform="matrix(0.7071 -0.7071 0.7071 0.7071 -65.6784 110.4296)" class="st0" width="5.81" height="5.81"/>
		
			<rect x="30.56" y="131.59" transform="matrix(0.7071 -0.7071 0.7071 0.7071 -85.298 63.054)" class="st0" width="5.81" height="5.81"/>
		
			<rect x="1.2" y="131.59" transform="matrix(0.7071 -0.7071 0.7071 0.7071 -93.898 42.2988)" class="st0" width="5.81" height="5.81"/>
		
			<rect x="126.91" y="131.59" transform="matrix(0.7071 -0.7071 0.7071 0.7071 -57.0785 131.1889)" class="st0" width="5.81" height="5.81"/>
		<path class="st0" d="M113.62,134.52v-0.03c8.99-0.29,16.2-7.68,16.2-16.74h0c0-7.83-5.38-14.41-12.65-16.25v-0.63h0
			c-0.03-9.21-7.49-16.68-16.7-16.71V58.69h-4.09v0c-6.66,0-12.12-5.15-12.61-11.68l0-0.13c0,0,0,0,0,0v-4.11c0,0,0,0-0.01,0
			l-0.01-8.59h0c0-0.02,0-0.04,0-0.06l0-0.18h0c-0.11-7.74-5.47-14.22-12.68-16.02V4.13l0.02-0.02L66.97,0l-4.11,4.11l0,0v13.8
			c-7.21,1.8-12.58,8.28-12.68,16.02h0l0,0.18c0,0.02,0,0.04,0,0.06h0l-0.01,8.59c0,0,0,0-0.01,0v4.11c0,0,0,0,0,0l0,0.13
			c-0.49,6.54-5.95,11.68-12.61,11.68v0h-4.09v25.46c-9.21,0.03-16.68,7.5-16.7,16.71h0v0.63c-7.27,1.83-12.65,8.41-12.65,16.25h0
			c0,9.07,7.21,16.45,16.2,16.74v0.03c-8.98,0.29-16.18,7.65-16.2,16.7h0v4.12h4.48c6.47,0.19,11.71,5.22,12.23,11.59v1.01
			c0.02,0,0.03,0,0.05,0v0h0c0,0.1,0.01,0.2,0.01,0.3v28.79c0,0.1-0.01,0.2-0.01,0.3c0,0.1,0.01,0.2,0.01,0.3v0.46h0.01
			c0.4,8.9,7.74,16,16.74,16v-4.11c-6.84,0-12.41-5.43-12.64-12.21l0-0.86c0.22-6.65,5.57-12,12.22-12.22
			c0.14,0,0.28,0.01,0.42,0.01v-0.02c0.01,0,0.02,0,0.02,0v0.02c0.11,0,0.22-0.01,0.32-0.01c6.54,0.26,11.8,5.48,12.12,12.01v6.26h0
			v0.63l0,0c0.02,2.25,0.48,4.4,1.31,6.36h-9.56v4.11h12.05c2.69,3.27,6.59,5.5,11.01,6.01v11.61h4.11v-11.61
			c4.42-0.51,8.32-2.74,11.01-6.01h12.05v-4.11h-9.56c0.83-1.96,1.29-4.11,1.31-6.36l0,0v-0.63h0v-6.26
			c0.32-6.52,5.58-11.75,12.12-12.01c0.11,0,0.22,0.01,0.32,0.01v-0.02c0.01,0,0.02,0,0.02,0v0.02c0.14,0,0.28-0.01,0.42-0.01
			c6.65,0.22,12,5.57,12.22,12.22l0,0.86c-0.23,6.78-5.8,12.21-12.64,12.21v4.11c9,0,16.34-7.1,16.74-16h0.01v-0.46
			c0-0.1,0.01-0.2,0.01-0.3c0-0.1-0.01-0.2-0.01-0.3v-28.79c0-0.1,0.01-0.2,0.01-0.3h0v0c0.02,0,0.03,0,0.05,0v-1.01
			c0.52-6.38,5.77-11.41,12.23-11.59h4.48v-4.12h0C129.79,142.17,122.6,134.81,113.62,134.52z M125.7,117.74
			C125.7,117.74,125.7,117.74,125.7,117.74L125.7,117.74c0,6.97-5.63,12.62-12.6,12.65c0,0,0,0,0,0h0
			C113.11,123.42,118.74,117.77,125.7,117.74z M125.02,113.65c-6.78,0.29-12.52,4.62-14.88,10.65c-2.36-3.07-5.77-5.3-9.69-6.16
			v-0.42c0.02-6.96,5.66-12.6,12.62-12.61C118.62,105.11,123.32,108.68,125.02,113.65z M67.01,176.46h-0.09
			c-6.97-0.02-12.61-5.67-12.61-12.65h-0.02H50.2h-0.48c-6.74-0.27-12.12-5.8-12.14-12.6c0.02-6.97,5.67-12.61,12.65-12.61v-4.11
			c0,0,0,0,0,0v-4.11c-6.97,0-12.63-5.64-12.65-12.61c0.02-6.97,5.67-12.61,12.65-12.61v0h0.03h3.49h0.62
			c0-6.97,5.63-12.62,12.59-12.65c6.96,0.03,12.59,5.68,12.59,12.65h0.62h3.49h0.03v0c6.97,0,12.63,5.64,12.65,12.61
			c-0.02,6.97-5.67,12.61-12.65,12.61v4.11c0,0,0,0,0,0v4.11c6.97,0,12.63,5.64,12.65,12.61c-0.02,6.8-5.4,12.33-12.14,12.6h-0.48
			h-4.09h-0.02C79.62,170.78,73.98,176.44,67.01,176.46z M34.07,146.79c-5.5-1.33-9.59-6.26-9.65-12.15v-0.21
			c0.03-5.92,4.13-10.88,9.65-12.22c1.95,7.05,8.39,12.25,16.06,12.29C42.47,134.54,36.02,139.73,34.07,146.79z M66.91,59.2
			c0-0.11,0.01-0.21,0.01-0.31H66.9c-0.09-2.46-0.71-4.79-1.76-6.87c0.59,0.06,1.2,0.1,1.81,0.1v0c0,0,0.01,0,0.01,0
			c0,0,0.01,0,0.01,0v0c0.61,0,1.22-0.04,1.81-0.1c-1.04,2.08-1.67,4.41-1.76,6.87h-0.02c0,0.11,0.01,0.21,0.01,0.32
			c0,0.11-0.01,0.21-0.01,0.32h0.02c0.28,7.54,5.54,13.81,12.6,15.61c-0.01,0.17-0.01,0.35-0.01,0.52h0
			c0,6.98-5.66,12.64-12.64,12.65c-6.98,0-12.64-5.67-12.64-12.65h0c0-0.18-0.01-0.35-0.01-0.52c7.05-1.8,12.32-8.07,12.6-15.61
			h0.02C66.92,59.41,66.91,59.31,66.91,59.2z M83.79,134.5c7.66-0.04,14.11-5.23,16.06-12.29c5.52,1.34,9.62,6.29,9.65,12.22v0.21
			c-0.06,5.89-4.15,10.82-9.65,12.15C97.9,139.73,91.46,134.54,83.79,134.5z M113.06,100.89L113.06,100.89
			c-6.96-0.02-12.6-5.67-12.6-12.64C107.42,88.29,113.05,93.93,113.06,100.89z M98.39,96.28c1.55,2.84,3.9,5.18,6.74,6.72
			c-2.85,1.54-5.2,3.89-6.75,6.74c-1.57-2.85-3.94-5.19-6.81-6.72C94.45,101.49,96.82,99.14,98.39,96.28z M96.35,88.23L96.35,88.23
			c-0.01,6.93-5.58,12.55-12.49,12.64h-0.76c-1.19-4.51-4.22-8.28-8.23-10.45c5.25-2.82,8.82-8.36,8.83-14.73h0
			c0-0.01,0-0.03,0-0.04c0.02,0,0.03,0,0.05,0v-0.07c6.91,0.03,12.5,5.6,12.58,12.49L96.35,88.23L96.35,88.23L96.35,88.23z
			 M96.35,77.24c-2.92-3.36-7.16-5.55-11.92-5.75c1.73-4.92,6.41-8.44,11.92-8.45V77.24z M88.56,60.86
			c-3.99,2.1-7.02,5.77-8.3,10.18c-5.18-1.49-9-6.21-9.14-11.84c0.13-5.42,3.67-9.99,8.56-11.66C80.2,53.34,83.66,58.27,88.56,60.86
			z M79.59,33.08c-4.63-1.6-8.04-5.8-8.48-10.87C75.75,23.81,79.16,28.02,79.59,33.08z M66.96,21.47c0.16,7.63,5.4,14,12.49,15.86
			c-0.95,6.05-6.17,10.67-12.49,10.68c-6.31,0-11.54-4.63-12.49-10.68C61.56,35.48,66.81,29.1,66.96,21.47z M62.81,22.22
			c-0.43,5.06-3.84,9.27-8.48,10.87C54.77,28.02,58.18,23.81,62.81,22.22z M54.24,47.55c4.89,1.67,8.43,6.24,8.56,11.66
			c-0.14,5.63-3.95,10.35-9.14,11.84c-1.27-4.41-4.31-8.08-8.3-10.18C50.26,58.27,53.72,53.34,54.24,47.55z M37.58,63.04
			c5.51,0.01,10.19,3.53,11.92,8.45c-4.75,0.2-8.99,2.39-11.92,5.75V63.04z M37.57,88.23L37.57,88.23l0-0.15
			c0.08-6.9,5.68-12.46,12.58-12.5v0.07c0.02,0,0.03,0,0.05,0c0,0.01,0,0.03,0,0.04h0c0.01,6.37,3.59,11.91,8.83,14.73
			c-4.01,2.18-7.04,5.94-8.23,10.45h-0.76C43.15,100.78,37.58,95.16,37.57,88.23L37.57,88.23L37.57,88.23z M42.35,103.02
			c-2.87,1.53-5.24,3.87-6.81,6.72c-1.55-2.85-3.9-5.19-6.75-6.74c2.84-1.54,5.19-3.88,6.74-6.72
			C37.1,99.14,39.48,101.49,42.35,103.02z M20.87,100.89c0.01-6.96,5.64-12.61,12.6-12.63c0,6.97-5.63,12.62-12.6,12.65V100.89z
			 M20.84,105.09c6.96,0.01,12.6,5.65,12.62,12.61v0.42c-3.92,0.86-7.32,3.09-9.69,6.16c-2.35-6.02-8.09-10.35-14.88-10.65
			C10.6,108.68,15.3,105.11,20.84,105.09z M8.22,117.74L8.22,117.74C8.22,117.74,8.22,117.74,8.22,117.74
			c6.97,0.03,12.6,5.68,12.6,12.65h0c0,0,0,0,0,0C13.85,130.36,8.22,124.71,8.22,117.74z M8.48,151.22H8.22
			c0.02-6.93,5.62-12.54,12.54-12.6C20.74,145.46,15.28,151.02,8.48,151.22z M16.21,153.24c3.41-1.89,6.09-4.93,7.52-8.6
			c2.37,3.11,5.8,5.36,9.75,6.22c0,0.1-0.01,0.21-0.01,0.31h0c0,0.01,0,0.03,0,0.04c-0.02,5.76-3.88,10.6-9.15,12.12
			C23.07,158.99,20.11,155.36,16.21,153.24z M24.98,186.33l0-7.41c1.29,1.49,2.85,2.75,4.59,3.71
			C27.82,183.59,26.27,184.85,24.98,186.33z M37.97,180.57c-0.12,0-0.23-0.01-0.35-0.01v0c-0.01,0-0.03,0-0.04,0
			c-0.04,0-0.09,0-0.13,0v0.01c-0.08,0-0.17,0-0.25,0.01c-6.78-0.22-12.21-5.77-12.23-12.6h0c0-0.11-0.01-0.23-0.01-0.34l0-0.21
			l-0.01,0c0,0,0-0.01,0-0.01c4.55-1.16,8.35-4.18,10.56-8.2c2.83,5.16,8.29,8.67,14.58,8.71l0,0l0.11,0c0,0,0.01,0,0.01,0l0,0h0.49
			H50.3C50.3,174.81,44.81,180.4,37.97,180.57z M52.21,189.36c-1.52-2.81-3.81-5.13-6.6-6.68c3.58-1.94,6.38-5.15,7.79-9.02
			c3.01,4.13,7.86,6.83,13.34,6.9v0h0.05c0.02,0,0.03,0,0.05,0C60.51,180.61,55.02,184.16,52.21,189.36z M62.83,185.37
			c-0.29,5.23-3.75,9.61-8.5,11.25C54.61,191.39,58.08,187.01,62.83,185.37z M79.71,202.96l-0.01,1.26
			c-0.4,6.62-5.9,11.86-12.62,11.86h-0.24c-6.72,0-12.22-5.24-12.62-11.86l-0.01-1.26v-2.02c7.22-1.78,12.6-8.24,12.73-15.98h0.04
			c0.13,7.74,5.51,14.21,12.73,15.98V202.96z M71.1,185.37c4.75,1.64,8.21,6.02,8.5,11.25C74.85,194.98,71.39,190.6,71.1,185.37z
			 M81.72,189.36c-2.8-5.18-8.25-8.71-14.53-8.79v-0.01h0.13v-0.01c5.43-0.11,10.22-2.79,13.2-6.89c1.41,3.87,4.21,7.08,7.79,9.02
			C85.53,184.24,83.24,186.56,81.72,189.36z M108.95,186.33c-1.29-1.49-2.84-2.75-4.58-3.7c1.74-0.96,3.29-2.22,4.59-3.71
			L108.95,186.33z M108.96,167.43L108.96,167.43l-0.01,0.2c0,0.11-0.01,0.22-0.01,0.34h0c-0.02,6.83-5.45,12.38-12.23,12.6
			c-0.08,0-0.17-0.01-0.25-0.01v-0.01c-0.04,0-0.09,0-0.13,0c-0.01,0-0.03,0-0.04,0v0c-0.12,0-0.23,0.01-0.35,0.01
			c-6.84-0.17-12.33-5.76-12.33-12.64h-0.41h0.49l0,0c0,0,0.01,0,0.01,0l0.11,0l0,0c6.29-0.04,11.75-3.55,14.58-8.71
			c2.21,4.02,6.01,7.04,10.56,8.2C108.96,167.42,108.96,167.43,108.96,167.43z M109.61,163.33c-5.27-1.52-9.13-6.36-9.15-12.12
			c0-0.01,0-0.03,0-0.04h0c0-0.1-0.01-0.21-0.01-0.31c3.95-0.86,7.38-3.12,9.75-6.22c1.43,3.67,4.11,6.71,7.52,8.6
			C113.81,155.36,110.86,158.99,109.61,163.33z M125.45,151.22c-6.8-0.19-12.26-5.75-12.28-12.6c6.92,0.06,12.52,5.67,12.54,12.6
			H125.45z"/>
		
			<rect x="104.33" y="72.74" transform="matrix(0.7071 -0.7071 0.7071 0.7071 -22.0799 97.9799)" class="st0" width="5.81" height="5.81"/>
		
			<rect x="89.16" y="44.35" transform="matrix(0.7071 -0.7071 0.7071 0.7071 -6.4487 78.9474)" class="st0" width="5.81" height="5.81"/>
		
			<rect x="64.05" y="160.91" transform="matrix(0.7071 -0.7071 0.7071 0.7071 -96.2222 95.3262)" class="st0" width="5.81" height="5.81"/>
		
			<rect x="64.05" y="102.11" transform="matrix(0.7071 -0.7071 0.7071 0.7071 -54.6463 78.102)" class="st0" width="5.81" height="5.81"/>
		
			<rect x="64.06" y="202.63" transform="matrix(0.7071 -0.7071 0.7071 0.7071 -125.7193 107.5428)" class="st0" width="5.81" height="5.81"/>
		
			<rect x="64.05" y="74.33" transform="matrix(0.7071 -0.7071 0.7071 0.7071 -35.0055 69.9642)" class="st0" width="5.81" height="5.81"/>
		
			<rect x="64.05" y="36.13" transform="matrix(0.7071 -0.7071 0.7071 0.7071 -7.9929 58.7788)" class="st0" width="5.81" height="5.81"/>
	</g>
	<g>
		<g>
			<path class="st1" d="M330.77,164.59c0.26,0.11,0.46,0.22,0.62,0.32c0.13,0.08,0.24,0.16,0.31,0.25l0.32,0.35
				c0.11,0.14,0.23,0.36,0.33,0.63c0.07,0.18,0.15,0.53,0.15,1.18v23.39h4.68v-28.67h-7.92v2.11l0.56,0.14
				C330.2,164.39,330.52,164.49,330.77,164.59z"/>
			<path class="st1" d="M373.19,191h3.39v-28.9h-3.86v19.91l-15.82-19.63l-0.22-0.27l-6.68-0.03v2.46l0.71,0.03
				c0.58,0.02,1.05,0.13,1.37,0.31c0.44,0.24,0.66,0.44,0.75,0.55c0.16,0.2,0.29,0.42,0.37,0.66v25h3.92v-20.38l15.84,20.01
				L373.19,191z"/>
			<path class="st1" d="M401.72,191.2c1.32,0,2.6-0.18,3.8-0.53c1.21-0.35,2.35-0.84,3.4-1.48c1.05-0.63,2.02-1.4,2.88-2.28
				c0.85-0.88,1.6-1.87,2.21-2.96c0.61-1.09,1.09-2.26,1.42-3.48c0.34-1.24,0.51-2.54,0.51-3.86c0-1.32-0.17-2.62-0.51-3.85
				c-0.33-1.21-0.81-2.38-1.43-3.46c-0.61-1.07-1.36-2.06-2.21-2.93c-0.85-0.87-1.82-1.63-2.87-2.27c-1.04-0.63-2.19-1.13-3.4-1.48
				c-1.21-0.35-2.49-0.52-3.8-0.52h-8.58l-4.79,0.11v2.13l0.55,0.14c0.41,0.11,0.75,0.22,0.99,0.33c0.24,0.11,0.43,0.21,0.57,0.32
				c0.17,0.13,0.26,0.21,0.3,0.27c0.11,0.13,0.22,0.26,0.36,0.42c0.11,0.11,0.21,0.28,0.31,0.5c0.07,0.16,0.17,0.47,0.23,0.97v23.92
				H401.72z M396.35,186.99V166.3h4.74c1.47,0,2.85,0.26,4.09,0.76c1.23,0.5,2.32,1.22,3.22,2.13c0.9,0.91,1.61,2.01,2.11,3.27
				c0.51,1.26,0.76,2.66,0.76,4.16c0,1.52-0.26,2.93-0.76,4.2c-0.5,1.26-1.21,2.36-2.11,3.26c-0.9,0.91-1.99,1.62-3.23,2.13
				c-1.24,0.51-2.61,0.77-4.09,0.77H396.35z"/>
			<path class="st1" d="M453.8,168.95L453.8,168.95c-0.64-1.09-1.41-2.1-2.31-2.99c-0.89-0.89-1.89-1.67-2.99-2.31
				c-1.1-0.64-2.28-1.15-3.53-1.49c-2.5-0.71-5.38-0.71-7.9,0c-1.26,0.35-2.45,0.86-3.55,1.5c-1.09,0.64-2.1,1.42-2.98,2.31
				c-0.9,0.89-1.67,1.89-2.31,2.98c-0.64,1.08-1.15,2.28-1.5,3.55c-0.36,1.27-0.53,2.6-0.53,3.96c0,1.37,0.18,2.7,0.53,3.96
				c0.35,1.25,0.86,2.44,1.5,3.53c0.64,1.09,1.42,2.09,2.31,2.97c0.9,0.89,1.9,1.66,2.99,2.29c1.08,0.63,2.27,1.13,3.54,1.47
				c1.26,0.35,2.6,0.52,3.97,0.52c1.34,0,2.66-0.18,3.92-0.52c1.26-0.35,2.44-0.84,3.53-1.47c1.08-0.63,2.09-1.4,2.99-2.29
				c0.9-0.89,1.68-1.89,2.31-2.98c0.63-1.08,1.13-2.27,1.48-3.52c0.36-1.26,0.54-2.59,0.54-3.96c0-1.36-0.18-2.69-0.54-3.96
				C454.93,171.23,454.43,170.04,453.8,168.95z M451.63,176.45c0,1.44-0.28,2.81-0.84,4.07c-0.56,1.27-1.33,2.4-2.29,3.36
				c-0.96,0.96-2.09,1.72-3.38,2.27c-2.57,1.12-5.7,1.09-8.23,0c-1.28-0.55-2.42-1.32-3.37-2.27c-0.95-0.95-1.72-2.09-2.29-3.37
				c-0.56-1.27-0.84-2.63-0.84-4.07c0-1.45,0.28-2.84,0.84-4.12c0.57-1.3,1.34-2.45,2.29-3.41c0.95-0.97,2.09-1.74,3.37-2.31
				c1.28-0.56,2.67-0.84,4.13-0.84c1.44,0,2.81,0.28,4.09,0.84c1.28,0.56,2.41,1.33,3.37,2.3c0.95,0.97,1.73,2.11,2.29,3.41
				C451.35,173.61,451.63,174.99,451.63,176.45z"/>
			<path class="st1" d="M488.28,182.01l-15.82-19.64l-0.22-0.27l-6.68-0.03v2.46l0.71,0.03c0.58,0.02,1.05,0.13,1.37,0.31
				c0.44,0.24,0.66,0.44,0.75,0.55c0.16,0.2,0.29,0.42,0.37,0.66v25h3.92v-20.38l15.84,20.01l0.22,0.28h3.39v-28.9h-3.86V182.01z"/>
			<path class="st1" d="M504.09,164.21l0.55,0.13c0.56,0.13,1,0.29,1.31,0.48c0.33,0.2,0.59,0.39,0.77,0.57
				c0.22,0.2,0.37,0.4,0.45,0.6c0.06,0.17,0.15,0.49,0.22,1.06v24.12h18.54v-4.01h-13.95v-8.68h12.43v-4.04h-12.43v-8.17h13.95
				v-4.24h-21.89L504.09,164.21z"/>
			<path class="st1" d="M555.17,179.13c-0.39-0.77-0.92-1.49-1.58-2.13c-0.68-0.62-1.44-1.19-2.25-1.68
				c-0.81-0.48-1.62-0.93-2.41-1.33c-0.81-0.41-1.62-0.83-2.43-1.25c-0.76-0.4-1.53-0.88-2.19-1.35c-0.44-0.44-0.8-0.9-1.08-1.37
				c-0.24-0.42-0.37-0.95-0.37-1.57c0-0.47,0.09-0.9,0.26-1.29c0.17-0.38,0.42-0.71,0.75-0.99c0.62-0.47,1.3-0.76,2.03-0.88
				c0.78-0.12,1.58-0.12,2.39-0.01c0.85,0.12,1.7,0.33,2.53,0.61c0.88,0.3,1.71,0.61,2.49,0.92l1.02,0.42v-4.45l-0.58-0.13
				c-0.59-0.13-1.24-0.26-1.98-0.37c-0.71-0.11-1.45-0.2-2.2-0.26c-0.79-0.06-1.58-0.09-2.3-0.07c-0.78,0.01-1.56,0.09-2.32,0.22
				c-0.76,0.13-1.5,0.34-2.2,0.61c-0.71,0.28-1.38,0.66-1.97,1.12c-1.74,1.29-2.62,3.15-2.62,5.54c0,2.06,0.77,3.88,2.29,5.4
				c0.64,0.64,1.36,1.22,2.14,1.7c0.75,0.47,1.54,0.93,2.34,1.35l2.41,1.27c0.78,0.41,1.53,0.86,2.21,1.33
				c0.44,0.37,0.81,0.84,1.08,1.39c0.27,0.54,0.4,1.13,0.4,1.75c0,1.42-0.41,2.48-1.24,3.24c-0.4,0.34-0.91,0.61-1.5,0.78
				c-0.62,0.19-1.33,0.28-2.13,0.28c-1.15,0-2.28-0.15-3.37-0.46c-1.11-0.31-2.24-0.72-3.35-1.22l-1.04-0.47v4.46l0.58,0.13
				c1.01,0.22,2.08,0.42,3.18,0.59c1.09,0.17,2.24,0.26,3.4,0.26c0.84,0,1.74-0.07,2.68-0.22c0.95-0.15,1.86-0.4,2.73-0.74
				c0.88-0.35,1.71-0.83,2.45-1.42c0.77-0.62,1.39-1.4,1.81-2.31c0.38-0.77,0.64-1.6,0.77-2.46c0.12-0.86,0.11-1.71-0.04-2.54
				C555.83,180.7,555.56,179.89,555.17,179.13z"/>
			<path class="st1" d="M567.23,164.15l0.56,0.14c0.39,0.1,0.71,0.2,0.95,0.3c0.26,0.11,0.47,0.22,0.63,0.32
				c0.13,0.08,0.24,0.17,0.31,0.25l0.32,0.35c0.11,0.14,0.23,0.36,0.33,0.63c0.07,0.18,0.15,0.53,0.15,1.18v23.39h4.68v-28.67h-7.92
				V164.15z"/>
			<path class="st1" d="M603.09,162.44L602.9,162h-6.76v2.37l0.68,0.05c0.1,0.01,0.21,0.03,0.33,0.07c0.12,0.04,0.27,0.1,0.44,0.16
				c0.14,0.05,0.28,0.13,0.48,0.26c0.43,0.22,0.43,0.4,0.43,0.47c0,0.06-0.01,0.14-0.03,0.24c-0.03,0.13-0.06,0.27-0.08,0.39
				l-10.91,25.14h4.76l3.8-8.65h11.02l3.6,8.21l0.19,0.44h4.74L603.09,162.44z M605.26,178.47h-7.45l3.73-8.47L605.26,178.47z"/>
			<path class="st1" d="M338.98,226.76l1.61-1.92c0.55-0.66,1.11-1.32,1.66-1.98c0.56-0.66,1.1-1.31,1.61-1.94l1.43-1.76
				c0.44-0.54,0.82-1.01,1.09-1.37l0.2-0.2c0.26-0.39,0.49-0.77,0.7-1.13c0.21-0.37,0.4-0.75,0.56-1.15
				c0.15-0.39,0.28-0.79,0.37-1.18c0.09-0.41,0.17-0.85,0.22-1.33c0.06-0.81,0-1.61-0.17-2.4c-0.18-0.79-0.45-1.54-0.82-2.24
				c-0.36-0.71-0.83-1.37-1.38-1.97c-0.54-0.58-1.15-1.11-1.84-1.56c-0.67-0.44-1.4-0.8-2.18-1.04c-1.92-0.62-4.05-0.48-5.84,0.4
				c-1.05,0.51-1.97,1.21-2.74,2.07c-0.77,0.85-1.38,1.87-1.84,3.02c-0.45,1.15-0.68,2.39-0.68,3.68v0.74h4.85v-0.74
				c0-0.64,0.11-1.25,0.32-1.82c0.21-0.56,0.5-1.06,0.85-1.48c0.35-0.41,0.76-0.74,1.23-0.98c0.45-0.23,0.93-0.35,1.4-0.35
				c0.62,0.03,1.16,0.13,1.58,0.29c0.43,0.17,0.79,0.38,1.08,0.63c0.29,0.25,0.52,0.54,0.69,0.84c0.19,0.34,0.34,0.67,0.43,1
				c0.1,0.34,0.17,0.67,0.2,0.99c0.03,0.33,0.05,0.62,0.05,0.83c-0.02,0.44-0.12,0.82-0.29,1.14c-0.2,0.37-0.41,0.68-0.67,0.97
				c-0.33,0.45-0.75,0.99-1.25,1.62c-0.5,0.63-1.04,1.3-1.61,2c-0.58,0.7-1.18,1.43-1.8,2.17l-1.83,2.17
				c-0.6,0.71-1.16,1.38-1.69,2.03c-0.52,0.63-0.99,1.18-1.4,1.65c-0.42,0.47-0.74,0.86-0.99,1.15c-0.12,0.15-0.22,0.25-0.28,0.32
				l-3.51,4.01h21.15v-4.68h-10.91C338.7,227.09,338.84,226.92,338.98,226.76z"/>
			<path class="st1" d="M386.95,210.44c-0.63-1.08-1.4-2.08-2.29-2.96c-0.88-0.88-1.88-1.65-2.96-2.29
				c-1.09-0.64-2.27-1.14-3.5-1.48c-2.48-0.7-5.34-0.7-7.84,0c-1.24,0.35-2.43,0.85-3.52,1.48c-1.08,0.64-2.08,1.41-2.96,2.29
				c-0.89,0.88-1.66,1.88-2.29,2.96c-0.64,1.08-1.14,2.26-1.49,3.52c-0.35,1.27-0.53,2.59-0.53,3.93c0,1.35,0.18,2.68,0.53,3.93
				c0.35,1.24,0.85,2.41,1.49,3.5c0.64,1.08,1.41,2.07,2.3,2.95c0.89,0.88,1.89,1.65,2.96,2.27c1.08,0.62,2.26,1.12,3.51,1.46
				c1.25,0.34,2.58,0.52,3.94,0.52c1.33,0,2.64-0.17,3.89-0.52c1.25-0.35,2.43-0.84,3.5-1.46c1.07-0.62,2.07-1.38,2.97-2.27
				c0.89-0.89,1.66-1.89,2.29-2.96c0.63-1.08,1.12-2.26,1.47-3.49c0.35-1.24,0.53-2.57,0.53-3.93c0-1.35-0.18-2.67-0.53-3.93
				C388.08,212.7,387.58,211.52,386.95,210.44z M383.8,217.88c0,1.29-0.25,2.51-0.75,3.65c-0.5,1.15-1.2,2.16-2.05,3.03
				c-0.86,0.86-1.88,1.54-3.04,2.04c-2.28,0.99-5.1,0.98-7.37,0c-1.16-0.5-2.18-1.19-3.03-2.04c-0.86-0.86-1.55-1.88-2.06-3.03
				c-0.5-1.13-0.75-2.36-0.75-3.64c0-1.3,0.25-2.54,0.76-3.69c0.51-1.17,1.21-2.21,2.06-3.07c0.86-0.87,1.88-1.56,3.03-2.07
				c1.14-0.5,2.39-0.75,3.7-0.75c1.28,0,2.52,0.25,3.66,0.75c1.15,0.5,2.17,1.2,3.03,2.07c0.86,0.87,1.55,1.9,2.06,3.07
				C383.55,215.33,383.8,216.57,383.8,217.88z"/>
			<path class="st1" d="M409.08,226.76l1.61-1.92c0.55-0.66,1.11-1.32,1.66-1.98c0.56-0.66,1.1-1.31,1.61-1.94l1.43-1.76
				c0.44-0.54,0.82-1.01,1.09-1.37l0.2-0.2c0.26-0.39,0.49-0.77,0.7-1.13c0.21-0.37,0.4-0.75,0.56-1.15
				c0.15-0.39,0.28-0.79,0.37-1.18c0.09-0.41,0.17-0.85,0.22-1.33c0.06-0.81,0-1.61-0.17-2.4c-0.18-0.79-0.45-1.54-0.82-2.24
				c-0.36-0.71-0.83-1.37-1.38-1.97c-0.54-0.58-1.15-1.11-1.84-1.56c-0.67-0.44-1.4-0.8-2.18-1.04c-1.92-0.62-4.05-0.48-5.84,0.4
				c-1.05,0.51-1.97,1.21-2.74,2.07c-0.77,0.85-1.38,1.87-1.84,3.02c-0.45,1.15-0.68,2.39-0.68,3.68v0.74h4.85v-0.74
				c0-0.64,0.11-1.25,0.32-1.82c0.21-0.56,0.5-1.06,0.85-1.48c0.35-0.41,0.76-0.74,1.23-0.98c0.45-0.23,0.93-0.35,1.4-0.35
				c0.62,0.03,1.16,0.13,1.58,0.29c0.43,0.17,0.79,0.38,1.08,0.63c0.29,0.25,0.52,0.54,0.69,0.84c0.19,0.34,0.33,0.67,0.43,1
				c0.1,0.34,0.17,0.67,0.2,0.99c0.03,0.33,0.05,0.62,0.05,0.83c-0.02,0.44-0.12,0.82-0.29,1.14c-0.2,0.37-0.41,0.68-0.67,0.97
				c-0.33,0.45-0.75,0.99-1.25,1.62c-0.5,0.63-1.04,1.3-1.61,2c-0.58,0.7-1.18,1.43-1.8,2.17l-1.83,2.17
				c-0.6,0.71-1.16,1.38-1.69,2.03c-0.52,0.63-0.99,1.18-1.4,1.65c-0.42,0.47-0.74,0.86-0.99,1.15c-0.12,0.15-0.22,0.25-0.28,0.32
				l-3.51,4.01h21.15v-4.68h-10.91C408.8,227.09,408.93,226.92,409.08,226.76z"/>
			<path class="st1" d="M440.27,226.76l1.61-1.92c0.55-0.66,1.11-1.32,1.66-1.98c0.56-0.66,1.1-1.31,1.61-1.94l1.43-1.76
				c0.44-0.54,0.82-1.01,1.09-1.37l0.2-0.2c0.26-0.39,0.49-0.77,0.7-1.13c0.21-0.36,0.4-0.75,0.56-1.15
				c0.15-0.39,0.28-0.79,0.37-1.18c0.09-0.41,0.17-0.85,0.22-1.33c0.06-0.81,0-1.61-0.17-2.4c-0.18-0.79-0.45-1.54-0.82-2.24
				c-0.36-0.71-0.83-1.37-1.38-1.97c-0.54-0.58-1.15-1.11-1.84-1.56c-0.67-0.44-1.4-0.8-2.18-1.04c-1.92-0.62-4.05-0.48-5.84,0.4
				c-1.05,0.51-1.97,1.21-2.74,2.07c-0.77,0.85-1.38,1.87-1.84,3.02c-0.45,1.15-0.68,2.39-0.68,3.68v0.74h4.85v-0.74
				c0-0.64,0.11-1.25,0.32-1.82c0.21-0.56,0.5-1.06,0.85-1.48c0.35-0.41,0.76-0.74,1.23-0.98c0.45-0.23,0.93-0.35,1.4-0.35
				c0.62,0.03,1.16,0.13,1.58,0.29c0.43,0.17,0.79,0.38,1.08,0.63c0.29,0.25,0.52,0.54,0.69,0.84c0.19,0.34,0.34,0.67,0.43,1
				c0.1,0.34,0.17,0.67,0.2,0.99c0.03,0.33,0.05,0.62,0.05,0.83c-0.02,0.44-0.12,0.82-0.29,1.14c-0.2,0.37-0.41,0.68-0.67,0.97
				c-0.33,0.45-0.75,0.99-1.25,1.61c-0.5,0.63-1.04,1.3-1.61,2c-0.58,0.7-1.18,1.43-1.81,2.17l-1.83,2.17
				c-0.6,0.71-1.16,1.38-1.69,2.03c-0.52,0.63-0.99,1.18-1.4,1.65c-0.42,0.47-0.74,0.86-0.99,1.15c-0.12,0.15-0.22,0.25-0.28,0.32
				l-3.51,4.01h21.15v-4.68h-10.91C439.99,227.09,440.13,226.92,440.27,226.76z"/>
		</g>
		<g>
			<path class="st1" d="M214.89,219.19c1.27-1.51,2.58-3.07,3.93-4.68c1.34-1.61,2.69-3.22,4.05-4.83c1.38-1.63,2.7-3.22,3.92-4.72
				l3.49-4.3c1.01-1.24,1.91-2.37,2.7-3.36l0.28-0.21l0.17-0.25c0.63-0.96,1.2-1.89,1.69-2.74c0.52-0.9,0.97-1.84,1.34-2.78
				c0.37-0.93,0.67-1.89,0.9-2.86c0.23-0.97,0.41-2.04,0.53-3.22c0.16-1.96,0.02-3.92-0.41-5.83c-0.42-1.89-1.09-3.72-1.98-5.43
				c-0.89-1.73-2.02-3.33-3.35-4.78c-1.32-1.44-2.82-2.71-4.45-3.79c-1.64-1.08-3.42-1.94-5.28-2.54c-1.88-0.61-3.85-0.92-5.84-0.92
				c-2.93,0-5.73,0.64-8.3,1.89c-2.53,1.24-4.77,2.93-6.64,5.01c-1.87,2.08-3.37,4.54-4.46,7.31c-1.09,2.79-1.65,5.79-1.65,8.93
				v1.71h11.64v-1.71c0-1.58,0.26-3.07,0.78-4.45c0.52-1.38,1.22-2.6,2.09-3.63c0.85-1,1.87-1.81,3.02-2.4
				c1.11-0.57,2.25-0.85,3.48-0.86c1.51,0.07,2.8,0.31,3.84,0.71c1.05,0.41,1.94,0.93,2.64,1.55c0.71,0.62,1.28,1.32,1.7,2.07
				c0.46,0.82,0.82,1.65,1.07,2.46c0.25,0.82,0.42,1.63,0.5,2.4c0.08,0.82,0.12,1.53,0.12,2.1c-0.06,1.05-0.3,1.98-0.72,2.77
				c-0.47,0.89-0.98,1.65-1.53,2.25l-0.1,0.12c-0.81,1.09-1.83,2.41-3.03,3.93c-1.21,1.54-2.54,3.17-3.93,4.86
				c-1.44,1.75-2.91,3.52-4.39,5.28c-1.52,1.81-3.01,3.57-4.46,5.29c-1.45,1.72-2.83,3.36-4.12,4.93c-1.25,1.52-2.4,2.87-3.41,4.02
				c-1.01,1.16-1.81,2.08-2.41,2.79c-0.15,0.18-0.28,0.32-0.38,0.44l-8.71,9.98h44.1l11.42-11.22l-30.97,0
				C214.14,220.07,214.52,219.64,214.89,219.19z"/>
			<path class="st1" d="M186.28,197.49H164.7l-11.42,11.22h21.81v6.25c-0.19,0.18-0.33,0.28-0.33,0.28l-0.11,0.09
				c-1.55,1.16-3.19,2.12-4.89,2.85c-2.79,1.21-5.81,1.82-8.95,1.82c-3.22,0-6.26-0.61-9.06-1.82c-2.82-1.22-5.31-2.9-7.4-4.98
				c-2.09-2.09-3.78-4.57-5.02-7.38c-1.22-2.77-1.84-5.76-1.84-8.9c0-3.17,0.62-6.21,1.84-9.01c1.24-2.84,2.93-5.36,5.03-7.49
				c2.09-2.12,4.58-3.82,7.4-5.05c1.62-0.71,3.43-1.23,5.38-1.53l1.45-0.26v-0.02c3.67-0.45,14.26-0.61,22.88,10.49l0.51,0.66h4.27
				v-24.66h-3.38l-5.58,5.93c-2.24-1.2-4.64-2.16-7.15-2.87c-6.01-1.69-12.65-1.69-18.69,0c-2.99,0.84-5.81,2.03-8.38,3.54
				c-2.57,1.51-4.95,3.35-7.06,5.46c-2.12,2.11-3.96,4.49-5.47,7.05c-1.52,2.57-2.71,5.4-3.55,8.4c-0.84,3.01-1.27,6.16-1.27,9.37
				c0,3.25,0.43,6.4,1.27,9.37c0.84,2.97,2.03,5.77,3.55,8.34c1.51,2.57,3.36,4.94,5.48,7.04c2.12,2.1,4.49,3.92,7.07,5.41
				c2.57,1.5,5.39,2.67,8.39,3.49c2.99,0.82,6.15,1.24,9.39,1.24c3.18,0,6.29-0.42,9.27-1.24c2.97-0.82,5.78-1.99,8.35-3.49
				c2.47-1.43,4.76-3.17,6.8-5.15l1.01-1.08V197.49z"/>
			<path class="st1" d="M313.7,187.38c-0.84-3.02-2.04-5.87-3.55-8.46c-1.51-2.6-3.36-5-5.5-7.13c-2.13-2.13-4.53-3.98-7.13-5.51
				c-2.6-1.53-5.44-2.73-8.43-3.58c-6.07-1.71-12.77-1.71-18.87,0c-3.02,0.84-5.86,2.05-8.46,3.58c-2.6,1.53-4.99,3.38-7.13,5.51
				c-2.13,2.13-3.99,4.52-5.52,7.12c-1.53,2.6-2.74,5.45-3.58,8.48c-0.85,3.04-1.28,6.22-1.28,9.46c0,3.28,0.43,6.46,1.28,9.47
				c0.85,3,2.05,5.83,3.58,8.42c1.53,2.59,3.39,4.98,5.53,7.1c2.14,2.12,4.54,3.95,7.13,5.46c2.6,1.51,5.45,2.7,8.47,3.52
				c3.02,0.83,6.21,1.25,9.48,1.25c3.2,0,6.35-0.42,9.36-1.25c3-0.83,5.84-2.01,8.43-3.52c2.6-1.51,5-3.34,7.13-5.46
				c2.14-2.12,4-4.52,5.51-7.12c1.51-2.59,2.7-5.42,3.55-8.41c0.85-3.01,1.28-6.19,1.28-9.47
				C314.98,193.6,314.55,190.42,313.7,187.38z M301.26,205.81c-1.25,2.84-2.96,5.35-5.08,7.46c-2.11,2.11-4.63,3.8-7.48,5.04
				c-2.82,1.22-5.87,1.84-9.05,1.84c-3.25,0-6.33-0.62-9.15-1.84c-2.85-1.23-5.37-2.93-7.48-5.04c-2.11-2.11-3.82-4.62-5.07-7.46
				c-1.23-2.8-1.86-5.83-1.86-9c0-3.21,0.63-6.27,1.86-9.11c1.26-2.87,2.97-5.42,5.08-7.57c2.11-2.14,4.63-3.86,7.48-5.11
				c2.82-1.24,5.9-1.86,9.14-1.86c3.18,0,6.22,0.63,9.04,1.86c2.85,1.25,5.37,2.97,7.48,5.1c2.12,2.15,3.83,4.69,5.08,7.57
				c1.24,2.83,1.87,5.9,1.87,9.11C303.12,199.98,302.5,203.01,301.26,205.81z"/>
		</g>
	</g>
</g>
</svg>
